<mxfile host="app.diagrams.net" modified="2024-03-19T10:34:40.231Z" agent="Mozilla/5.0 (Windows NT 10.0; Win64; x64; rv:123.0) Gecko/20100101 Firefox/123.0" etag="pMSkEYhQTy99zvq0LMNo" version="24.0.2" type="github">
  <diagram id="C5RBs43oDa-KdzZeNtuy" name="Page-1">
    <mxGraphModel dx="1877" dy="657" grid="1" gridSize="10" guides="1" tooltips="1" connect="1" arrows="1" fold="1" page="1" pageScale="1" pageWidth="827" pageHeight="1169" math="0" shadow="0">
      <root>
        <mxCell id="WIyWlLk6GJQsqaUBKTNV-0" />
        <mxCell id="WIyWlLk6GJQsqaUBKTNV-1" parent="WIyWlLk6GJQsqaUBKTNV-0" />
        <mxCell id="WIyWlLk6GJQsqaUBKTNV-2" value="" style="rounded=0;html=1;jettySize=auto;orthogonalLoop=1;fontSize=11;endArrow=block;endFill=0;endSize=8;strokeWidth=1;shadow=0;labelBackgroundColor=none;edgeStyle=orthogonalEdgeStyle;fontFamily=Times New Roman;fontColor=default;" parent="WIyWlLk6GJQsqaUBKTNV-1" source="WIyWlLk6GJQsqaUBKTNV-3" target="WIyWlLk6GJQsqaUBKTNV-12" edge="1">
          <mxGeometry relative="1" as="geometry">
            <mxPoint x="403.12000000000023" y="210.00000000000023" as="targetPoint" />
          </mxGeometry>
        </mxCell>
        <mxCell id="WIyWlLk6GJQsqaUBKTNV-3" value="Client request invoice" style="rounded=1;whiteSpace=wrap;html=1;fontSize=12;glass=0;strokeWidth=1;shadow=0;fontFamily=Times New Roman;labelBackgroundColor=none;" parent="WIyWlLk6GJQsqaUBKTNV-1" vertex="1">
          <mxGeometry x="333.76" y="100" width="138.75" height="40" as="geometry" />
        </mxCell>
        <mxCell id="2FDm5ahhGizcEzBvZWcj-9" style="edgeStyle=orthogonalEdgeStyle;rounded=0;orthogonalLoop=1;jettySize=auto;html=1;exitX=0.5;exitY=1;exitDx=0;exitDy=0;labelBackgroundColor=none;fontColor=default;" edge="1" parent="WIyWlLk6GJQsqaUBKTNV-1" source="WIyWlLk6GJQsqaUBKTNV-7" target="2FDm5ahhGizcEzBvZWcj-42">
          <mxGeometry relative="1" as="geometry">
            <mxPoint x="402.87" y="480" as="targetPoint" />
          </mxGeometry>
        </mxCell>
        <mxCell id="WIyWlLk6GJQsqaUBKTNV-7" value="&lt;div&gt;Open invoice&lt;/div&gt;&lt;div&gt;from local machine&lt;br&gt;&lt;/div&gt;" style="rounded=1;whiteSpace=wrap;html=1;fontSize=12;glass=0;strokeWidth=1;shadow=0;fontFamily=Times New Roman;labelBackgroundColor=none;" parent="WIyWlLk6GJQsqaUBKTNV-1" vertex="1">
          <mxGeometry x="331.88" y="360" width="142.5" height="40" as="geometry" />
        </mxCell>
        <mxCell id="2FDm5ahhGizcEzBvZWcj-12" style="edgeStyle=orthogonalEdgeStyle;rounded=0;orthogonalLoop=1;jettySize=auto;html=1;labelBackgroundColor=none;fontColor=default;" edge="1" parent="WIyWlLk6GJQsqaUBKTNV-1" source="2FDm5ahhGizcEzBvZWcj-39" target="WIyWlLk6GJQsqaUBKTNV-7">
          <mxGeometry relative="1" as="geometry">
            <mxPoint x="401.178695652174" y="330" as="sourcePoint" />
          </mxGeometry>
        </mxCell>
        <mxCell id="2FDm5ahhGizcEzBvZWcj-41" style="edgeStyle=orthogonalEdgeStyle;rounded=0;orthogonalLoop=1;jettySize=auto;html=1;exitX=0.5;exitY=1;exitDx=0;exitDy=0;" edge="1" parent="WIyWlLk6GJQsqaUBKTNV-1" source="WIyWlLk6GJQsqaUBKTNV-12" target="2FDm5ahhGizcEzBvZWcj-39">
          <mxGeometry relative="1" as="geometry" />
        </mxCell>
        <mxCell id="WIyWlLk6GJQsqaUBKTNV-12" value="&lt;div&gt;Start process at&lt;/div&gt;&lt;div&gt;specific time of day&lt;/div&gt;" style="rounded=1;whiteSpace=wrap;html=1;fontSize=12;glass=0;strokeWidth=1;shadow=0;fontFamily=Times New Roman;labelBackgroundColor=none;" parent="WIyWlLk6GJQsqaUBKTNV-1" vertex="1">
          <mxGeometry x="331.88" y="180" width="143.43" height="50" as="geometry" />
        </mxCell>
        <mxCell id="2FDm5ahhGizcEzBvZWcj-15" style="edgeStyle=orthogonalEdgeStyle;rounded=0;orthogonalLoop=1;jettySize=auto;html=1;exitX=0.5;exitY=1;exitDx=0;exitDy=0;labelBackgroundColor=none;fontColor=default;" edge="1" parent="WIyWlLk6GJQsqaUBKTNV-1" source="2FDm5ahhGizcEzBvZWcj-10" target="2FDm5ahhGizcEzBvZWcj-11">
          <mxGeometry relative="1" as="geometry" />
        </mxCell>
        <mxCell id="2FDm5ahhGizcEzBvZWcj-10" value="Insert production&lt;br&gt;to provided template" style="rounded=1;whiteSpace=wrap;html=1;fontSize=12;glass=0;strokeWidth=1;shadow=0;fontFamily=Times New Roman;labelBackgroundColor=none;" vertex="1" parent="WIyWlLk6GJQsqaUBKTNV-1">
          <mxGeometry x="331.63" y="530" width="142.5" height="50" as="geometry" />
        </mxCell>
        <mxCell id="2FDm5ahhGizcEzBvZWcj-17" style="edgeStyle=orthogonalEdgeStyle;rounded=0;orthogonalLoop=1;jettySize=auto;html=1;labelBackgroundColor=none;fontColor=default;" edge="1" parent="WIyWlLk6GJQsqaUBKTNV-1" source="2FDm5ahhGizcEzBvZWcj-44" target="2FDm5ahhGizcEzBvZWcj-16">
          <mxGeometry relative="1" as="geometry">
            <mxPoint x="196.39" y="750" as="sourcePoint" />
          </mxGeometry>
        </mxCell>
        <mxCell id="2FDm5ahhGizcEzBvZWcj-45" style="edgeStyle=orthogonalEdgeStyle;rounded=0;orthogonalLoop=1;jettySize=auto;html=1;exitX=0.5;exitY=1;exitDx=0;exitDy=0;" edge="1" parent="WIyWlLk6GJQsqaUBKTNV-1" source="2FDm5ahhGizcEzBvZWcj-11" target="2FDm5ahhGizcEzBvZWcj-44">
          <mxGeometry relative="1" as="geometry" />
        </mxCell>
        <mxCell id="2FDm5ahhGizcEzBvZWcj-11" value="&lt;div&gt;Log in to easy invoice&lt;/div&gt;&lt;div&gt;in the browser&lt;br&gt;&lt;/div&gt;" style="rounded=1;whiteSpace=wrap;html=1;fontSize=12;glass=0;strokeWidth=1;shadow=0;fontFamily=Times New Roman;labelBackgroundColor=none;" vertex="1" parent="WIyWlLk6GJQsqaUBKTNV-1">
          <mxGeometry x="332.58" y="620" width="142.5" height="50" as="geometry" />
        </mxCell>
        <mxCell id="2FDm5ahhGizcEzBvZWcj-13" value="&lt;h1&gt;Invoicing Automation Process&lt;/h1&gt;" style="text;html=1;align=center;verticalAlign=middle;resizable=0;points=[];autosize=1;strokeColor=none;fillColor=none;labelBackgroundColor=none;" vertex="1" parent="WIyWlLk6GJQsqaUBKTNV-1">
          <mxGeometry x="218.13" width="370" height="70" as="geometry" />
        </mxCell>
        <mxCell id="2FDm5ahhGizcEzBvZWcj-48" value="" style="edgeStyle=orthogonalEdgeStyle;rounded=0;orthogonalLoop=1;jettySize=auto;html=1;" edge="1" parent="WIyWlLk6GJQsqaUBKTNV-1" source="2FDm5ahhGizcEzBvZWcj-16" target="2FDm5ahhGizcEzBvZWcj-47">
          <mxGeometry relative="1" as="geometry" />
        </mxCell>
        <mxCell id="2FDm5ahhGizcEzBvZWcj-16" value="Download draft invoice&lt;br&gt;from easy invoice" style="rounded=1;whiteSpace=wrap;html=1;fontSize=12;glass=0;strokeWidth=1;shadow=0;fontFamily=Times New Roman;labelBackgroundColor=none;" vertex="1" parent="WIyWlLk6GJQsqaUBKTNV-1">
          <mxGeometry x="325.09999999999997" y="800" width="156.99" height="50" as="geometry" />
        </mxCell>
        <mxCell id="2FDm5ahhGizcEzBvZWcj-39" value="&lt;div&gt;Download invoice &amp;amp; report&lt;br&gt;from GYmonitoring&lt;br&gt;&lt;/div&gt;" style="rounded=1;whiteSpace=wrap;html=1;fontSize=12;glass=0;strokeWidth=1;shadow=0;fontFamily=Times New Roman;labelBackgroundColor=none;" vertex="1" parent="WIyWlLk6GJQsqaUBKTNV-1">
          <mxGeometry x="313.82" y="270" width="178.6" height="50" as="geometry" />
        </mxCell>
        <mxCell id="2FDm5ahhGizcEzBvZWcj-43" style="edgeStyle=orthogonalEdgeStyle;rounded=0;orthogonalLoop=1;jettySize=auto;html=1;exitX=0.5;exitY=1;exitDx=0;exitDy=0;" edge="1" parent="WIyWlLk6GJQsqaUBKTNV-1" source="2FDm5ahhGizcEzBvZWcj-42" target="2FDm5ahhGizcEzBvZWcj-10">
          <mxGeometry relative="1" as="geometry" />
        </mxCell>
        <mxCell id="2FDm5ahhGizcEzBvZWcj-42" value="&lt;div&gt;Copy production&lt;/div&gt;&lt;div&gt;from downloaded invoice&lt;br&gt;&lt;/div&gt;" style="rounded=1;whiteSpace=wrap;html=1;fontSize=12;glass=0;strokeWidth=1;shadow=0;fontFamily=Times New Roman;labelBackgroundColor=none;" vertex="1" parent="WIyWlLk6GJQsqaUBKTNV-1">
          <mxGeometry x="311.41" y="440" width="183.44" height="50" as="geometry" />
        </mxCell>
        <mxCell id="2FDm5ahhGizcEzBvZWcj-44" value="&lt;div&gt;Upload template&lt;/div&gt;&lt;div&gt;on to EasyInvoice &lt;/div&gt;" style="rounded=1;whiteSpace=wrap;html=1;fontSize=12;glass=0;strokeWidth=1;shadow=0;fontFamily=Times New Roman;labelBackgroundColor=none;" vertex="1" parent="WIyWlLk6GJQsqaUBKTNV-1">
          <mxGeometry x="330.7" y="710" width="147.11" height="50" as="geometry" />
        </mxCell>
        <mxCell id="2FDm5ahhGizcEzBvZWcj-47" value="Send email with&amp;nbsp;draft invoice&lt;br&gt;proforma invoice and report to client" style="whiteSpace=wrap;html=1;fontFamily=Times New Roman;rounded=1;glass=0;strokeWidth=1;shadow=0;labelBackgroundColor=none;" vertex="1" parent="WIyWlLk6GJQsqaUBKTNV-1">
          <mxGeometry x="297.45" y="900" width="213.61" height="60" as="geometry" />
        </mxCell>
      </root>
    </mxGraphModel>
  </diagram>
</mxfile>
